<svg xmlns="http://www.w3.org/2000/svg" viewBox="0 0 227.17 110.19"><defs><style>.cls-1{fill:#fe5f55;}</style></defs><title>arrow</title><g id="Layer_2" data-name="Layer 2"><g id="Layer_3" data-name="Layer 3"><path class="cls-1" d="M224.07,8.44a1.25,1.25,0,0,0,.24.28A5.35,5.35,0,0,1,227,15q-3.68,15-7.38,30.09A5.44,5.44,0,1,1,209,42.57c1.25-5.28,2.57-10.54,3.86-15.81l.38-1.57a6.61,6.61,0,0,0-.9.35c-1.86,1.11-3.72,2.24-5.57,3.37l-62,37.58c-.37.22-.74.46-1.12.66a5.44,5.44,0,0,1-7.14-1.74c-.22-.32-.41-.66-.62-1q-6.75-11.13-13.49-22.27a14.7,14.7,0,0,1-.64-1.37c-.49.23-.8.35-1.08.51-1.34.8-2.67,1.61-4,2.42Q62.73,76.41,8.79,109.1a5.8,5.8,0,0,1-4.57.94,5.36,5.36,0,0,1-2.77-8.91,7.77,7.77,0,0,1,1.73-1.36q58.5-35.47,117-70.94a5.78,5.78,0,0,1,8.16,2c4.5,7.62,9.14,15.16,13.73,22.73.24.4.5.79.68,1.09l64.47-39.07c-.23-.31-.73-.28-1.15-.38q-8.91-2.2-17.83-4.38a5.56,5.56,0,0,1-3.24-2A5.39,5.39,0,0,1,188.44.21L189.68,0Z"/></g></g></svg>