<?xml version="1.0" encoding="iso-8859-1"?>
<!-- Generator: Adobe Illustrator 19.0.0, SVG Export Plug-In . SVG Version: 6.00 Build 0)  -->
<svg version="1.1" id="Capa_1" xmlns="http://www.w3.org/2000/svg" xmlns:xlink="http://www.w3.org/1999/xlink" x="0px" y="0px"
	 viewBox="0 0 462.406 462.406" style="enable-background:new 0 0 462.406 462.406;" xml:space="preserve">
<g>
	<path d="M462.073,254.29c-2.354-14.032-15.704-23.832-32.465-23.832c-54.117,0-139.662-22.577-189.145-60.358
		c-14.346-10.953-25.02-20.666-33.596-28.47c-14.403-13.106-23.917-21.764-35.847-21.764c-6.494,0-12.937,2.619-20.277,8.241
		c-10.343,7.923-14.029,19.46-17.594,30.618c-5.42,16.966-10.155,31.78-37.653,35.997c-3.343-10.708-10.867-29.037-24.197-33.798
		c-5.784-2.065-10.821-3.069-15.399-3.069c-15.263,0-23.557,10.886-30.245,22.649c-5.488,9.65-11.896,30.343-15.715,45.131
		c-3.206,12.412-4.851,21.135-5.581,27.352c-0.317,0.755-0.511,1.55-0.651,2.384l-0.025-0.003l-0.012,0.094
		c-0.018,0.137-0.031,0.274-0.041,0.411c-0.066,0.46-0.122,0.932-0.179,1.414c-0.146,1.232-0.351,3.008-0.589,5.186
		c-0.435,3.968-1.068,10.092-1.62,16.738c-1.453,17.491-1.63,29.783-0.529,36.536c2.263,13.874,21.989,26.712,149.896,26.712
		c7.948,0,13.295-2.256,18.013-4.248c3.813-1.609,7.416-3.129,12.964-3.812c5.074-0.623,13.174,1.532,21.007,3.618
		c8.015,2.134,16.303,4.341,23.912,4.441c4.227,0.055,8.372,0.083,12.449,0.083c128.722-0.001,183.698-27.105,207.154-50.256
		c11.16-11.015,15.286-21.503,15.483-27.375C462.519,261.172,462.618,257.542,462.073,254.29z M411.026,297.54
		c-26.934,13.941-80.778,30.277-184.314,28.918c-5.622-0.073-12.933-2.021-20.004-3.903c-9.305-2.478-18.927-5.04-27.078-4.037
		c-7.762,0.955-13.013,3.171-17.232,4.952c-4.111,1.735-7.081,2.988-11.791,2.988c-116.954,0-132.349-11.632-134.174-13.74
		c-1.121-7.805,0.028-24.955,1.325-38.734c23.363,3.272,137.626,18.822,242.37,25.124c0.871,0.102,1.743,0.209,2.614,0.304
		c0.294,0.032,0.586,0.047,0.875,0.047c0.365,0,0.722-0.033,1.076-0.081c25.766,1.487,50.863,2.392,73.785,2.392
		c30.934,0,55.253-1.573,73.579-4.778C411.71,297.174,411.379,297.357,411.026,297.54z M426.996,276.896
		c-17.055,5.888-46.837,8.874-88.519,8.874c-23.803,0-49.998-0.989-76.856-2.596c-47.08-5.563-95.57-22.104-128.238-35.145
		c-4.105-1.641-8.758,0.36-10.396,4.463s0.36,8.758,4.463,10.396c9.507,3.795,20.329,7.88,32.062,11.918
		c-67.396-6.757-124.285-14.529-139.67-16.686c0.589-8.737,4.99-27.909,10.076-44.544c4.142,2.952,9.226,6.217,15.206,9.764
		c1.28,0.759,2.686,1.121,4.073,1.121c2.732,0,5.394-1.4,6.889-3.92c2.254-3.8,1-8.708-2.8-10.962
		c-9.294-5.512-14.762-9.392-17.93-11.92c1.456-3.731,2.882-6.917,4.205-9.245c6.924-12.176,11.233-14.558,16.337-14.558
		c2.714,0,5.991,0.699,10.018,2.137c6.71,2.397,13.456,18.896,15.9,29.284c0.902,3.865,4.504,6.491,8.455,6.154
		c44.006-3.667,51.831-28.157,58.118-47.836c3.071-9.613,5.724-17.915,12.083-22.785c4.342-3.326,7.792-4.943,10.547-4.943
		c5.74,0,13.433,7,25.079,17.598c6.645,6.047,14.52,13.211,24.386,21.251l-7.935,11.959c-2.443,3.681-1.438,8.646,2.243,11.089
		c1.361,0.903,2.896,1.335,4.416,1.335c2.591,0,5.133-1.257,6.673-3.578l7.246-10.921c3.823,2.821,7.893,5.599,12.188,8.321
		l-5.748,8.663c-2.443,3.682-1.438,8.646,2.243,11.089c1.361,0.903,2.896,1.335,4.416,1.335c2.591,0,5.133-1.257,6.673-3.578
		l6.218-9.371c4.239,2.331,8.64,4.607,13.183,6.821l-5.715,8.613c-2.443,3.682-1.438,8.646,2.243,11.089
		c1.361,0.903,2.896,1.335,4.416,1.335c2.591,0,5.134-1.257,6.673-3.578l7.108-10.713c12.543,5.397,25.926,10.315,39.852,14.604
		c36.077,11.111,72.561,17.229,102.73,17.229c10.312,0,15.811,5.263,16.686,10.479C447.266,262.735,442.796,271.441,426.996,276.896
		z"/>
	<path d="M103.217,235.174c-7.571-3.437-14.982-6.968-22.028-10.496c-3.951-1.979-8.757-0.379-10.735,3.572
		c-1.978,3.951-0.379,8.757,3.572,10.735c7.227,3.619,14.823,7.238,22.578,10.758c1.073,0.487,2.196,0.717,3.302,0.717
		c3.042,0,5.95-1.745,7.29-4.695C109.021,241.742,107.24,237,103.217,235.174z"/>
</g>
<g>
</g>
<g>
</g>
<g>
</g>
<g>
</g>
<g>
</g>
<g>
</g>
<g>
</g>
<g>
</g>
<g>
</g>
<g>
</g>
<g>
</g>
<g>
</g>
<g>
</g>
<g>
</g>
<g>
</g>
</svg>
